<?xml version="1.0" encoding="UTF-8"?>
<svg version="1.1" xmlns="http://www.w3.org/2000/svg" width="336" height="302">
<path d="M0 0 C5.71552933 3.03563384 8.41399611 7.05704628 11.75 12.5 C12.23082031 13.25925781 12.71164063 14.01851562 13.20703125 14.80078125 C16.80178288 20.51833886 16.80178288 20.51833886 17.89941406 23.18554688 C18.84077515 25.14411939 18.84077515 25.14411939 20.80371094 25.73461914 C23.25936865 26.0313399 25.66733734 26.17972526 28.140625 26.24609375 C29.62369141 26.29540039 29.62369141 26.29540039 31.13671875 26.34570312 C33.19651595 26.40643742 35.25641616 26.46378221 37.31640625 26.51757812 C43.17802692 26.71904758 48.37029656 27.33667853 54 29 C54 29.66 54 30.32 54 31 C54.99 31.33 55.98 31.66 57 32 C58.33609095 35.32093101 58.20255484 38.90666049 58.31640625 42.4453125 C58.37924805 44.30736328 58.37924805 44.30736328 58.44335938 46.20703125 C58.48267578 47.49996094 58.52199219 48.79289062 58.5625 50.125 C58.60568359 51.42566406 58.64886719 52.72632813 58.69335938 54.06640625 C59 63.42137897 59 63.42137897 59 66 C59.66 66 60.32 66 61 66 C61 66.66 61 67.32 61 68 C61.58644287 68.27924316 62.17288574 68.55848633 62.77709961 68.84619141 C66.29066895 70.66992877 69.37530895 73.03916085 72.5625 75.375 C73.23474609 75.85710937 73.90699219 76.33921875 74.59960938 76.8359375 C78.70986508 79.84005686 82.02378894 82.42001363 83.875 87.3125 C84.05440546 91.1697173 82.69182166 93.54868382 81 97 C80.34 97 79.68 97 79 97 C78.76152344 97.71285156 78.52304687 98.42570312 78.27734375 99.16015625 C76.79848631 102.44801362 74.91645317 104.71248032 72.5625 107.4375 C69.3969175 111.10373476 66.75667858 114.45295102 65 119 C65.12705001 121.60835656 65.12705001 121.60835656 66.0625 124.125 C66.35898437 125.06988281 66.65546875 126.01476562 66.9609375 126.98828125 C67.67192013 129.04906174 68.38559108 131.10891618 69.1015625 133.16796875 C69.45992187 134.20566406 69.81828125 135.24335938 70.1875 136.3125 C70.53167969 137.25738281 70.87585938 138.20226562 71.23046875 139.17578125 C72.48854197 143.79297384 72.55917933 146.90314824 70.375 151.1875 C65.65769718 156.77377966 58.66440567 158.15834537 51.875 160.125 C50.53501953 160.52138672 50.53501953 160.52138672 49.16796875 160.92578125 C42.21500792 162.97321516 42.21500792 162.97321516 39.84033203 163.26904297 C37.75767026 163.86066007 37.75767026 163.86066007 36.86279297 166.25366211 C36.57807129 167.15995361 36.29334961 168.06624512 36 169 C35.70367676 169.80252197 35.40735352 170.60504395 35.10205078 171.43188477 C34.80282715 172.26002686 34.50360352 173.08816895 34.1953125 173.94140625 C33.85886719 174.85470703 33.52242187 175.76800781 33.17578125 176.70898438 C32.4749202 178.61225201 31.78220726 180.51853983 31.09765625 182.42773438 C27.61902588 191.78564688 27.61902588 191.78564688 24 194 C16.61708799 196.32563182 10.6867637 193.8936297 3.8125 191.0625 C-4.32304521 187.42767634 -4.32304521 187.42767634 -13 187 C-15.67549329 188.20465391 -15.67549329 188.20465391 -18.1875 190 C-19.13753906 190.63035156 -20.08757812 191.26070312 -21.06640625 191.91015625 C-23.02663871 193.30659349 -24.95214045 194.75306845 -26.83984375 196.24609375 C-35.75937506 203.2641261 -35.75937506 203.2641261 -42.08203125 202.5703125 C-45.40930017 201.58094129 -47.04698148 199.7050764 -49 197 C-49.62777344 196.175 -50.25554687 195.35 -50.90234375 194.5 C-54.08360243 190.23462523 -57.10702063 185.92005489 -59.875 181.375 C-61.60403248 177.98189529 -61.60403248 177.98189529 -64 177 C-66.00935785 176.81225418 -68.0238331 176.67809908 -70.0390625 176.5703125 C-71.25980469 176.49683594 -72.48054688 176.42335937 -73.73828125 176.34765625 C-76.30562826 176.2005821 -78.87334649 176.05983555 -81.44140625 175.92578125 C-88.14519372 175.51075139 -93.98791156 175.1297797 -100 172 C-102.46879229 168.53068913 -102.2396241 165.15734389 -102.23828125 161.00390625 C-102.25369814 159.62694324 -102.27000157 158.24998992 -102.28710938 156.87304688 C-102.30356156 154.71584587 -102.3124897 152.55935824 -102.30541992 150.40209961 C-102.30279284 148.31022556 -102.33095677 146.22049329 -102.36328125 144.12890625 C-102.36626221 142.88181885 -102.36924316 141.63473145 -102.37231445 140.34985352 C-103.44957495 134.60069318 -107.82547227 131.9534992 -112.390625 128.73046875 C-113.18210937 128.15103516 -113.97359375 127.57160156 -114.7890625 126.97460938 C-116.43441516 125.77976994 -118.09086683 124.60007201 -119.7578125 123.43554688 C-126.43460966 118.48267685 -126.43460966 118.48267685 -127.296875 113.98828125 C-126.74041786 106.51271885 -122.21276866 101.76248259 -117.4375 96.375 C-110.53535301 88.88903174 -110.53535301 88.88903174 -108.73828125 79.09667969 C-109.17514008 75.59691882 -110.30424277 72.42812734 -111.5 69.125 C-115.44980198 57.28247525 -115.44980198 57.28247525 -114 51 C-110.30580819 44.70619173 -102.61947034 43.76329607 -96 42 C-93.45641068 41.31964784 -90.91468247 40.63229396 -88.375 39.9375 C-87.22773437 39.63714844 -86.08046875 39.33679688 -84.8984375 39.02734375 C-81.98780787 37.99567853 -80.75761268 37.48528672 -79 35 C-77.87785879 32.32279185 -77.87785879 32.32279185 -77 29.3125 C-76.66097656 28.24386719 -76.32195312 27.17523438 -75.97265625 26.07421875 C-75.65167969 25.05972656 -75.33070312 24.04523438 -75 23 C-74.06373704 20.29872457 -73.05474983 17.65980393 -72 15 C-71.566875 13.906875 -71.13375 12.81375 -70.6875 11.6875 C-68.51650822 8.22999458 -66.86656365 7.26406889 -63 6 C-56.008903 6.13444417 -49.65904515 9.33977653 -43.3828125 12.1875 C-42.11050781 12.744375 -42.11050781 12.744375 -40.8125 13.3125 C-39.67748047 13.83263672 -39.67748047 13.83263672 -38.51953125 14.36328125 C-33.47280472 15.63865555 -29.4262733 14.44634212 -25.0625 11.85546875 C-23.7003211 10.97846747 -22.34620084 10.08883562 -21 9.1875 C-19.64666142 8.3047188 -18.29250096 7.42319621 -16.9375 6.54296875 C-15.95511353 5.90270752 -15.95511353 5.90270752 -14.95288086 5.24951172 C-5.33032331 -0.90728907 -5.33032331 -0.90728907 0 0 Z M-2.07348633 81.99169922 C-3.49536336 83.4270259 -4.91479376 84.86477956 -6.33203125 86.3046875 C-7.88724016 87.87252443 -9.44258249 89.44022902 -10.99804688 91.0078125 C-13.42044578 93.45515913 -15.84120022 95.90409251 -18.25952148 98.35546875 C-20.61269082 100.7387128 -22.97193685 103.11580397 -25.33203125 105.4921875 C-26.05703323 106.23064911 -26.78203522 106.96911072 -27.52900696 107.72994995 C-28.20368515 108.4080069 -28.87836334 109.08606384 -29.57348633 109.78466797 C-30.16446609 110.38310516 -30.75544586 110.98154236 -31.36433411 111.59811401 C-33 113 -33 113 -36 114 C-36 113.34 -36 112.68 -36 112 C-36.66 112 -37.32 112 -38 112 C-38 111.34 -38 110.68 -38 110 C-39.65160781 108.32919719 -39.65160781 108.32919719 -41.75 106.625 C-44.10240844 104.65227854 -46.13097475 102.84591206 -48.125 100.5 C-49.97561429 98.72607542 -49.97561429 98.72607542 -52.875 98.8125 C-57.22154606 100.4641875 -59.29349519 103.32414417 -62 107 C-60.59029619 111.3633457 -58.5118259 113.86269795 -55.28125 117.08203125 C-54.34925781 118.01337891 -53.41726562 118.94472656 -52.45703125 119.90429688 C-51.97186035 120.38116943 -51.48668945 120.85804199 -50.98681641 121.34936523 C-49.49584241 122.81659137 -48.01879639 124.29685228 -46.54296875 125.77929688 C-42.41940351 130.71370277 -42.41940351 130.71370277 -37 133 C-37 133.66 -37 134.32 -37 135 C-34.21061788 135.41890218 -34.21061788 135.41890218 -31 135 C-28.08209475 132.7495803 -28.08209475 132.7495803 -26 130 C-26 129.34 -26 128.68 -26 128 C-25.45859375 127.7834375 -24.9171875 127.566875 -24.359375 127.34375 C-21.18354656 125.53500003 -18.79271919 123.08276201 -16.25 120.5 C-15.74339844 120.00113281 -15.23679688 119.50226563 -14.71484375 118.98828125 C-11.87194401 116.46938363 -11.87194401 116.46938363 -11 113 C-10.360625 112.731875 -9.72125 112.46375 -9.0625 112.1875 C-6.66868314 111.11332248 -6.66868314 111.11332248 -6 108 C-4.66666667 107.33333333 -3.33333333 106.66666667 -2 106 C-1.67 105.01 -1.34 104.02 -1 103 C0.32434948 102.31566041 1.65889941 101.65090047 3 101 C4.66554236 99.32795739 4.66554236 99.32795739 6.125 97.4375 C8.80555556 94.09722222 8.80555556 94.09722222 11 93 C11 92.34 11 91.68 11 91 C11.66 91 12.32 91 13 91 C14.77860438 89.35696506 14.77860438 89.35696506 16.5625 87.25 C17.49255859 86.20585937 17.49255859 86.20585937 18.44140625 85.140625 C20.02072977 82.97152904 20.80010129 81.66891792 21 79 C18.57858445 75.63692285 16.4528574 73.30190493 13 71 C6.90391212 71 2.06479283 77.8897769 -2.07348633 81.99169922 Z " fill="#276F51" transform="translate(196,53)"/>
<path d="M0 0 C3 4.1 3 4.1 3 7 C3.66 7 4.32 7 5 7 C5.94401042 8.79036458 6.88802083 10.58072917 7.83203125 12.37109375 C8.99019799 14.32267987 8.99019799 14.32267987 12 15 C12.73080266 16.97746603 13.39421747 18.98072489 14 21 C14.66 21.99 15.32 22.98 16 24 C22.41121373 24.76065248 25.68390928 23.54406048 31 20 C31 20.99 31 21.98 31 23 C27.65797605 25.99925226 24.86375787 27.31083985 20.4375 27.5625 C17.20593929 27.37937823 16.15642282 27.11064053 13.4375 25.1875 C12.58874949 24.15372775 11.78295714 23.08445407 11 22 C10.37222656 21.175 9.74445313 20.35 9.09765625 19.5 C5.91639757 15.23462523 2.89297937 10.92005489 0.125 6.375 C-1.60403248 2.98189529 -1.60403248 2.98189529 -4 2 C-6.54615009 1.76827173 -9.07396225 1.58105471 -11.625 1.4375 C-12.33140625 1.39431641 -13.0378125 1.35113281 -13.765625 1.30664062 C-15.51018537 1.20055249 -17.25506697 1.09977111 -19 1 C-19.33 0.01 -19.66 -0.98 -20 -2 C-17.79402076 -2.25081682 -15.58497421 -2.47473851 -13.375 -2.6875 C-12.14523438 -2.81511719 -10.91546875 -2.94273437 -9.6484375 -3.07421875 C-5.56585278 -2.99116831 -3.42634147 -2.16665711 0 0 Z " fill="#3C6E59" transform="translate(136,228)"/>
<path d="M0 0 C1.25 2 1.25 2 2 4 C2.66 4.33 3.32 4.66 4 5 C3.01 5 2.02 5 1 5 C1 4.34 1 3.68 1 3 C-1.60134984 1.8655905 -1.60134984 1.8655905 -5 2 C-6.88560655 3.22899506 -6.88560655 3.22899506 -8.69799805 4.97485352 C-9.40008392 5.61770294 -10.1021698 6.26055237 -10.82553101 6.92288208 C-14.39421192 10.33179299 -17.87784919 13.8152501 -21.33203125 17.33984375 C-22.88708699 18.91238908 -24.44243378 20.48464664 -25.99804688 22.05664062 C-28.42181366 24.51154788 -30.84314454 26.96872545 -33.25952148 29.4309082 C-35.61038463 31.82388201 -37.97041214 34.20749111 -40.33203125 36.58984375 C-41.05703323 37.33346664 -41.78203522 38.07708954 -42.52900696 38.84324646 C-43.20368515 39.52137894 -43.87836334 40.19951141 -44.57348633 40.89819336 C-45.45995598 41.79918007 -45.45995598 41.79918007 -46.36433411 42.71836853 C-48 44 -48 44 -51 44 C-51.495 42.515 -51.495 42.515 -52 41 C-51.1028125 40.8453125 -51.1028125 40.8453125 -50.1875 40.6875 C-47.70138466 39.90614947 -46.77056558 38.85104584 -45 37 C-44.34 37 -43.68 37 -43 37 C-42.67 35.68 -42.34 34.36 -42 33 C-41.01 33 -40.02 33 -39 33 C-39.495 31.515 -39.495 31.515 -40 30 C-39.071875 29.87625 -39.071875 29.87625 -38.125 29.75 C-35.84645565 29.20721701 -35.84645565 29.20721701 -34.9375 27.125 C-34.628125 26.42375 -34.31875 25.7225 -34 25 C-32.5 23.25 -32.5 23.25 -31 22 C-30.34 22 -29.68 22 -29 22 C-28.67 21.01 -28.34 20.02 -28 19 C-27.01 19 -26.02 19 -25 19 C-24.7525 18.4225 -24.505 17.845 -24.25 17.25 C-22.81995508 14.67591915 -21.14059555 13.01086248 -19 11 C-18.484375 10.484375 -17.96875 9.96875 -17.4375 9.4375 C-16.963125 8.963125 -16.48875 8.48875 -16 8 C-15.484375 7.443125 -14.96875 6.88625 -14.4375 6.3125 C-13 5 -13 5 -11 5 C-11 4.34 -11 3.68 -11 3 C-10.34 3 -9.68 3 -9 3 C-8.67 2.01 -8.34 1.02 -8 0 C-5.04063954 -1.47968023 -3.13239866 -0.84835797 0 0 Z " fill="#265844" transform="translate(211,123)"/>
<path d="M0 0 C0.70125 0.556875 1.4025 1.11375 2.125 1.6875 C2.125 2.6775 2.125 3.6675 2.125 4.6875 C1.135 4.6875 0.145 4.6875 -0.875 4.6875 C-1.555625 3.945 -1.555625 3.945 -2.25 3.1875 C-3.79704518 1.4763369 -3.79704518 1.4763369 -6.19140625 1.34765625 C-9.72577587 1.79524018 -10.92958342 3.14325298 -13.4375 5.625 C-16.24687719 8.38568781 -17.97707348 10.00855788 -21.875 10.6875 C-24.83727841 12.07409841 -27.5427745 13.44506518 -30.1875 15.375 C-34.05816309 17.26532384 -37.6419892 16.93650064 -41.875 16.6875 C-41.875 16.0275 -41.875 15.3675 -41.875 14.6875 C-42.535 14.3575 -43.195 14.0275 -43.875 13.6875 C-43.05322266 13.84412109 -43.05322266 13.84412109 -42.21484375 14.00390625 C-31.61905509 15.0893285 -23.25856307 7.89449535 -15.10546875 1.94921875 C-10.08216893 -1.56769853 -5.71197498 -2.60764075 0 0 Z " fill="#3A7058" transform="translate(198.875,54.3125)"/>
<path d="M0 0 C0.99 0.33 1.98 0.66 3 1 C2.51789063 1.65226563 2.03578125 2.30453125 1.5390625 2.9765625 C-3.46108704 9.44365269 -3.46108704 9.44365269 -6 17 C-5.36378248 19.4034884 -4.5774845 21.65119863 -3.62890625 23.94921875 C-3 26 -3 26 -4 29 C-4.66 28.67 -5.32 28.34 -6 28 C-6.59505999 25.95475679 -6.95466781 23.90666043 -7.33984375 21.8125 C-7.55769531 21.214375 -7.77554687 20.61625 -8 20 C-8.99 19.67 -9.98 19.34 -11 19 C-10.62956667 17.05748374 -10.22763135 15.12095707 -9.8125 13.1875 C-9.59207031 12.10855469 -9.37164062 11.02960938 -9.14453125 9.91796875 C-7.74068701 6.33888464 -6.36615306 5.68307653 -3 4 C-1.21655822 1.93045153 -1.21655822 1.93045153 0 0 Z " fill="#356A54" transform="translate(267,157)"/>
<path d="M0 0 C0.66 0.33 1.32 0.66 2 1 C-1.93651233 5.83628658 -5.76748698 10.51165799 -11 14 C-11.33 14.99 -11.66 15.98 -12 17 C-13.31647119 17.69937532 -14.65022151 18.36729133 -16 19 C-16.33 19.66 -16.66 20.32 -17 21 C-17.66 21 -18.32 21 -19 21 C-19.33 21.99 -19.66 22.98 -20 24 C-21.46180648 25.26689895 -22.92879982 26.52959388 -24.4453125 27.73046875 C-26.17191614 29.09094946 -26.17191614 29.09094946 -28.1875 31.25 C-30 33 -30 33 -33 34 C-35.6875 32.75 -35.6875 32.75 -38 31 C-38 30.01 -38 29.02 -38 28 C-37.34 28.33 -36.68 28.66 -36 29 C-36 29.66 -36 30.32 -36 31 C-30.38525648 29.81226579 -28.34725078 28.56443288 -25 24 C-23.75057546 22.87166507 -22.47715462 21.76962399 -21.1875 20.6875 C-18.36754963 18.28454783 -15.89136238 15.82914039 -13.5 13 C-10.49988912 9.4550414 -7.24350166 6.43950042 -3.69921875 3.4453125 C-1.90381734 1.95747294 -1.90381734 1.95747294 0 0 Z " fill="#295945" transform="translate(195,157)"/>
<path d="M0 0 C0.33 0 0.66 0 1 0 C1.06058594 0.83144531 1.12117187 1.66289063 1.18359375 2.51953125 C1.26738281 3.60621094 1.35117188 4.69289063 1.4375 5.8125 C1.55931641 7.43091797 1.55931641 7.43091797 1.68359375 9.08203125 C1.90212461 12.05989905 1.90212461 12.05989905 3 15 C3.66 15 4.32 15 5 15 C5 15.66 5 16.32 5 17 C5.85851562 17.40798828 5.85851562 17.40798828 6.734375 17.82421875 C9.03754666 19.01948542 11.12639832 20.32204623 13.25 21.8125 C13.95640625 22.29332031 14.6628125 22.77414063 15.390625 23.26953125 C17 25 17 25 17.234375 27.69921875 C17.11835938 28.83810547 17.11835938 28.83810547 17 30 C16.34 29.29875 15.68 28.5975 15 27.875 C12.19313843 25.05209923 9.09286715 22.75167479 5.8671875 20.4296875 C4.08487353 19.06498685 2.58401469 17.58401469 1 16 C-1.09989652 14.82425289 -1.09989652 14.82425289 -3 14 C-2.979375 13.05125 -2.95875 12.1025 -2.9375 11.125 C-2.77448174 8.09333717 -2.77448174 8.09333717 -4 6 C-3.01 5.34 -2.02 4.68 -1 4 C-0.27617533 1.94074861 -0.27617533 1.94074861 0 0 Z " fill="#366B55" transform="translate(252,104)"/>
<path d="M0 0 C0.99 0 1.98 0 3 0 C3.33 4.29 3.66 8.58 4 13 C4.66 13 5.32 13 6 13 C6.05429959 14.74965358 6.09292823 16.49979787 6.125 18.25 C6.14820312 19.22453125 6.17140625 20.1990625 6.1953125 21.203125 C5.99429463 24.08170091 5.59161629 25.61784582 4 28 C3.01 28.66 2.02 29.32 1 30 C0.525625 30.804375 0.05125 31.60875 -0.4375 32.4375 C-2.03370228 35.05527174 -3.46225774 36.33734128 -6 38 C-5.41764241 34.04366592 -3.41521157 31.80890318 -0.9375 28.75 C3.01445739 23.44182321 3.01445739 23.44182321 3.48046875 17.109375 C2.66687161 13.53748512 1.73645918 10.01630288 0.65625 6.515625 C0 4 0 4 0 0 Z " fill="#3B6956" transform="translate(84,115)"/>
<path d="M0 0 C1.17571451 3.67410785 1.07366746 7.16929183 1 11 C1.99 11.33 2.98 11.66 4 12 C4 12.66 4 13.32 4 14 C4.721875 14.061875 5.44375 14.12375 6.1875 14.1875 C9.83850322 15.24223426 11.42090955 17.28149926 14 20 C14.66 20 15.32 20 16 20 C17.54296875 21.42578125 17.54296875 21.42578125 19.1875 23.3125 C20.01314453 24.23482422 20.01314453 24.23482422 20.85546875 25.17578125 C21.23316406 25.77777344 21.61085938 26.37976563 22 27 C21.67 27.99 21.34 28.98 21 30 C20.34386719 29.30003906 19.68773438 28.60007813 19.01171875 27.87890625 C14.97774945 23.84209312 10.25251618 20.67788554 5.61914062 17.37304688 C4.92626953 16.86708984 4.23339844 16.36113281 3.51953125 15.83984375 C2.89151611 15.38988037 2.26350098 14.93991699 1.61645508 14.47631836 C-0.229919 12.79001357 -1.07613889 11.31225276 -2 9 C-2.01550531 6.21421299 -1.49854643 3.76466658 -1 1 C-0.67 0.67 -0.34 0.34 0 0 Z " fill="#386B56" transform="translate(71,159)"/>
<path d="M0 0 C2.52808281 1.40449045 3.70614674 2.41229349 5 5 C5.804375 5.144375 6.60875 5.28875 7.4375 5.4375 C10 6 10 6 12 9 C11.34773438 8.7834375 10.69546875 8.566875 10.0234375 8.34375 C9.14945313 8.0653125 8.27546875 7.786875 7.375 7.5 C6.51648438 7.2215625 5.65796875 6.943125 4.7734375 6.65625 C0.26573051 5.58963764 -2.71195647 5.29245828 -6.8515625 7.56640625 C-7.76679688 8.22511719 -8.68203125 8.88382813 -9.625 9.5625 C-14.49513508 13.06163067 -14.49513508 13.06163067 -17.3359375 12.71484375 C-17.88507813 12.47894531 -18.43421875 12.24304688 -19 12 C-17 9 -17 9 -14.4375 8.4375 C-13.2309375 8.2209375 -13.2309375 8.2209375 -12 8 C-11.67 7.34 -11.34 6.68 -11 6 C-9.02111039 5.27306096 -7.02045442 4.60183749 -5 4 C-5 3.34 -5 2.68 -5 2 C-2.75 0.8125 -2.75 0.8125 0 0 Z " fill="#3A6F57" transform="translate(187,234)"/>
<path d="M0 0 C-3 2 -3 2 -6.5625 2.8125 C-10.1111049 3.61021132 -10.1111049 3.61021132 -11.25 6.25 C-11.4975 7.1575 -11.745 8.065 -12 9 C-12.98482022 11.00751815 -13.98152514 13.00934459 -15 15 C-15.99 14.34 -16.98 13.68 -18 13 C-17 11.33333333 -16 9.66666667 -15 8 C-14.505 7.154375 -14.01 6.30875 -13.5 5.4375 C-9.50291514 -1.0577629 -7.57666168 -2.86229441 0 0 Z " fill="#396C56" transform="translate(244,213)"/>
<path d="M0 0 C0.99 0.33 1.98 0.66 3 1 C1.02 3.31 -0.96 5.62 -3 8 C-1.54718935 13.32697239 2.08111378 16.36402802 6 20 C5.34 20.66 4.68 21.32 4 22 C2.33333333 20.33333333 0.66666667 18.66666667 -1 17 C-1.928125 16.195625 -2.85625 15.39125 -3.8125 14.5625 C-6 12 -6 12 -6.5 8.875 C-5.94643532 5.69200311 -5.4879413 4.93506546 -3 3 C-2.1646875 2.1646875 -2.1646875 2.1646875 -1.3125 1.3125 C-0.879375 0.879375 -0.44625 0.44625 0 0 Z " fill="#245945" transform="translate(138,152)"/>
<path d="M0 0 C0.66 0.33 1.32 0.66 2 1 C1.67 2.65 1.34 4.3 1 6 C0.01 6 -0.98 6 -2 6 C-1.896875 6.763125 -1.79375 7.52625 -1.6875 8.3125 C-1.8421875 9.6428125 -1.8421875 9.6428125 -2 11 C-4.3832946 12.81883009 -5.95818337 14 -9 14 C-9.33 12.68 -9.66 11.36 -10 10 C-9.44570312 9.52949219 -8.89140625 9.05898437 -8.3203125 8.57421875 C-7.59585938 7.95160156 -6.87140625 7.32898438 -6.125 6.6875 C-5.40570313 6.07261719 -4.68640625 5.45773438 -3.9453125 4.82421875 C-1.80820669 2.9587676 -1.80820669 2.9587676 0 0 Z " fill="#216A4F" transform="translate(205,146)"/>
<path d="M0 0 C0.66 0 1.32 0 2 0 C1.45158854 3.83888024 -0.09110753 5.50666359 -3 8 C-5.65625 9.046875 -5.65625 9.046875 -8.5 9.75 C-9.4384375 9.99234375 -10.376875 10.2346875 -11.34375 10.484375 C-14 11 -14 11 -18 11 C-18 10.34 -18 9.68 -18 9 C-17.11957031 8.76925781 -16.23914063 8.53851563 -15.33203125 8.30078125 C-6.55856505 5.88638859 -6.55856505 5.88638859 0 0 Z " fill="#3D7059" transform="translate(119,86)"/>
<path d="M0 0 C0.66 0 1.32 0 2 0 C3.80622201 3.83822178 4.51873597 6.76365622 4 11 C2.125 14.375 2.125 14.375 0 17 C-0.66 17 -1.32 17 -2 17 C-2 15.68 -2 14.36 -2 13 C-1.34 12.67 -0.68 12.34 0 12 C1.15021476 5.94678972 1.15021476 5.94678972 0 0 Z " fill="#3A6E5C" transform="translate(264,190)"/>
<path d="M0 0 C0.99 0 1.98 0 3 0 C3.33 4.29 3.66 8.58 4 13 C4.66 13 5.32 13 6 13 C6 16.63 6 20.26 6 24 C5.67 24 5.34 24 5 24 C5 21.03 5 18.06 5 15 C4.34 15 3.68 15 3 15 C2.49363393 13.25183142 1.99515381 11.50137737 1.5 9.75 C1.2215625 8.77546875 0.943125 7.8009375 0.65625 6.796875 C0 4 0 4 0 0 Z " fill="#3D725C" transform="translate(84,115)"/>
<path d="M0 0 C1.13671875 1.65234375 1.13671875 1.65234375 2 4 C1.20703125 6.69140625 1.20703125 6.69140625 -0.1875 9.5625 C-0.63480469 10.51253906 -1.08210937 11.46257812 -1.54296875 12.44140625 C-3.34267157 15.60174231 -4.67418234 17.58331445 -8.1875 18.6875 C-8.785625 18.790625 -9.38375 18.89375 -10 19 C-8.86280581 15.58841744 -7.95657056 14.88145399 -5 13 C-4.34 13 -3.68 13 -3 13 C-2.814375 11.1746875 -2.814375 11.1746875 -2.625 9.3125 C-2.21108694 5.93520941 -1.45426549 3.10243305 0 0 Z " fill="#3E6E59" transform="translate(226,229)"/>
<path d="M0 0 C4.65292842 4.17570499 4.65292842 4.17570499 6 7.375 C6 11.1472039 4.65544339 13.62289548 3 17 C2.02270237 13.41657535 1.63493107 9.90713835 1.28125 6.21875 C1.01026314 4.08096476 0.56644149 2.07695214 0 0 Z " fill="#2F5F49" transform="translate(274,133)"/>
<path d="M0 0 C0.99 0.33 1.98 0.66 3 1 C2.54625 2.03125 2.0925 3.0625 1.625 4.125 C0.59214936 6.51558857 -0.26383747 8.82255212 -1.0625 11.3125 C-2 14 -2 14 -4 16 C-5.11213775 12.66358675 -4.95341693 12.20879764 -3.6875 9.125 C-3.40648438 8.42632812 -3.12546875 7.72765625 -2.8359375 7.0078125 C-2.42214844 6.01394531 -2.42214844 6.01394531 -2 5 C-1.4121875 3.515 -1.4121875 3.515 -0.8125 2 C-0.544375 1.34 -0.27625 0.68 0 0 Z " fill="#3F6E5B" transform="translate(126,63)"/>
<path d="M0 0 C0.33 0.66 0.66 1.32 1 2 C5.09392846 3.08759087 5.09392846 3.08759087 9 2 C9 2.66 9 3.32 9 4 C11.475 4.99 11.475 4.99 14 6 C10.11764181 7.49828872 7.56550712 6.43110582 3.75 5.0625 C2.67234375 4.68222656 1.5946875 4.30195313 0.484375 3.91015625 C-0.33546875 3.60980469 -1.1553125 3.30945313 -2 3 C-1.34 2.01 -0.68 1.02 0 0 Z " fill="#40705B" transform="translate(201,241)"/>
<path d="M0 0 C0.33 0 0.66 0 1 0 C1.05406122 1.93719378 1.09282025 3.87481921 1.125 5.8125 C1.14820313 6.89144531 1.17140625 7.97039062 1.1953125 9.08203125 C1 12 1 12 -1 15 C-1.66 14.67 -2.32 14.34 -3 14 C-2.979375 13.05125 -2.95875 12.1025 -2.9375 11.125 C-2.77448174 8.09333717 -2.77448174 8.09333717 -4 6 C-3.01 5.34 -2.02 4.68 -1 4 C-0.27617533 1.94074861 -0.27617533 1.94074861 0 0 Z " fill="#317458" transform="translate(252,104)"/>
<path d="M0 0 C0.79502868 3.06551599 1.44932202 6.14323156 2.0625 9.25 C2.23910156 10.14203125 2.41570312 11.0340625 2.59765625 11.953125 C2.73042969 12.62859375 2.86320312 13.3040625 3 14 C1.0546875 13.2421875 1.0546875 13.2421875 -1 12 C-2.5033557 5.34228188 -2.5033557 5.34228188 -1.0625 1.5 C-0.711875 1.005 -0.36125 0.51 0 0 Z " fill="#3A5E4F" transform="translate(71,159)"/>
<path d="M0 0 C4.8665386 0.41713188 6.79230533 2.45465326 10 6 C10.598125 6.556875 11.19625 7.11375 11.8125 7.6875 C13 9 13 9 13 11 C11.68 10.34 10.36 9.68 9 9 C9 8.34 9 7.68 9 7 C8.360625 6.731875 7.72125 6.46375 7.0625 6.1875 C5 5 5 5 4 2 C1.99983534 0.79117904 1.99983534 0.79117904 0 0 Z " fill="#315646" transform="translate(144,151)"/>
<path d="M0 0 C2.93055354 2.82589091 5.71777953 5.61893264 8 9 C7.75 11.3125 7.75 11.3125 7 13 C5.66104368 11.33784732 4.32869858 9.67036393 3 8 C2.4225 7.319375 1.845 6.63875 1.25 5.9375 C0 4 0 4 0 0 Z " fill="#356652" transform="translate(207,67)"/>
<path d="M0 0 C-3.74525799 3.74525799 -7.98270909 3.68909949 -13 4 C-13 3.34 -13 2.68 -13 2 C-11.39935157 1.46845258 -9.79431126 0.95011647 -8.1875 0.4375 C-7.29417969 0.14746094 -6.40085937 -0.14257812 -5.48046875 -0.44140625 C-3 -1 -3 -1 0 0 Z " fill="#41705B" transform="translate(100,97)"/>
<path d="M0 0 C0.33 0.99 0.66 1.98 1 3 C-0.14453125 4.82421875 -0.14453125 4.82421875 -1.8125 6.6875 C-2.35519531 7.31011719 -2.89789063 7.93273437 -3.45703125 8.57421875 C-5 10 -5 10 -7 10 C-5.6062718 5.56541027 -3.39417765 3.12621626 0 0 Z " fill="#1D523F" transform="translate(215,136)"/>
<path d="M0 0 C0.66 0.66 1.32 1.32 2 2 C1.7578125 4.3828125 1.7578125 4.3828125 1.125 7.125 C0.92132813 8.03507812 0.71765625 8.94515625 0.5078125 9.8828125 C0.34023437 10.58148438 0.17265625 11.28015625 0 12 C-0.66 12 -1.32 12 -2 12 C-2.05422947 10.5629191 -2.09289723 9.12524538 -2.125 7.6875 C-2.14820312 6.88699219 -2.17140625 6.08648437 -2.1953125 5.26171875 C-2 3 -2 3 0 0 Z " fill="#406E5C" transform="translate(84,101)"/>
<path d="M0 0 C0.66 0.33 1.32 0.66 2 1 C1.67 2.65 1.34 4.3 1 6 C0.401875 6.144375 -0.19625 6.28875 -0.8125 6.4375 C-2.56150404 6.8872439 -4.28677023 7.42892341 -6 8 C-4.768606 4.30581799 -2.79208646 2.64890254 0 0 Z " fill="#1D5C47" transform="translate(205,146)"/>
<path d="M0 0 C2.875 -0.125 2.875 -0.125 6 0 C6.66 0.66 7.32 1.32 8 2 C5.09399739 3.25664978 3.20395416 4 0 4 C0 2.68 0 1.36 0 0 Z " fill="#3C6F5B" transform="translate(242,81)"/>
<path d="M0 0 C2.86697492 1.28519565 4.97607712 2.57129254 7 5 C7 5.66 7 6.32 7 7 C7.66 7 8.32 7 9 7 C8.67 7.99 8.34 8.98 8 10 C8 9.34 8 8.68 8 8 C7.4225 7.7525 6.845 7.505 6.25 7.25 C3.67060021 5.81700012 1.93878408 4.21575324 0 2 C0 1.34 0 0.68 0 0 Z " fill="#44715B" transform="translate(132,228)"/>
<path d="M0 0 C0.66 0.33 1.32 0.66 2 1 C0.68 3.64 -0.64 6.28 -2 9 C-2.99 8.34 -3.98 7.68 -5 7 C-3.625 4.5 -3.625 4.5 -2 2 C-1.34 2 -0.68 2 0 2 C0 1.34 0 0.68 0 0 Z " fill="#30715D" transform="translate(231,219)"/>
<path d="M0 0 C1.32 1.32 2.64 2.64 4 4 C3.34 5.65 2.68 7.3 2 9 C1.34 9 0.68 9 0 9 C0 6 0 3 0 0 Z " fill="#295E47" transform="translate(216,129)"/>
<path d="M0 0 C1.485 0.99 1.485 0.99 3 2 C3.40843923 4.71203652 3.13336867 7.2437142 3 10 C0.51280729 7.08025204 -0.58572305 4.83206182 -1 1 C-0.67 0.67 -0.34 0.34 0 0 Z " fill="#316B54" transform="translate(249,83)"/>
<path d="M0 0 C1.46015291 0.28241641 2.91809793 0.57626614 4.375 0.875 C5.18710938 1.03742187 5.99921875 1.19984375 6.8359375 1.3671875 C9 2 9 2 11 4 C4.6 4.49230769 4.6 4.49230769 1.5625 2 C1.046875 1.34 0.53125 0.68 0 0 Z " fill="#446E5A" transform="translate(137,60)"/>
<path d="M0 0 C2.31 0 4.62 0 7 0 C7 0.66 7 1.32 7 2 C4.36 2.66 1.72 3.32 -1 4 C-0.67 2.68 -0.34 1.36 0 0 Z " fill="#3B6D59" transform="translate(246,209)"/>
</svg>
